# xmcd
# Track frame offsets:
# 150
# 18896
# 34905
# 50871
# 70330
# 92058
# 107920
# 122644
# 139795
# 157524
# 176092
# 191772
# 215579
#
# Disc length: 3099 seconds
# Revision: 0
# Processed by: cddbd v1.5.2PL0 Copyright (c) Steve Scherf et al.
# Submitted via: VisiTrax 2.10.1.251 - For more info visit www.synapsa.com
#
DISCID=b80c190d
DTITLE=James Morrison - Undiscovered
DYEAR=2006
DGENRE=Pop
TTITLE0=Under the influence
TTITLE1=You give me something
TTITLE2=Wonderful world
TTITLE3=The pieces don't fit anymore
TTITLE4=One last chance
TTITLE5=Undiscovered
TTITLE6=The letter
TTITLE7=Call the police
TTITLE8=This boy
TTITLE9=If the rain must fall
TTITLE10=How come
TTITLE11=The last goodbye
TTITLE12=Better man
EXTD=
EXTT0=
EXTT1=
EXTT2=
EXTT3=
EXTT4=
EXTT5=
EXTT6=
EXTT7=
EXTT8=
EXTT9=
EXTT10=
EXTT11=
EXTT12=
PLAYORDER=
